<svg xmlns="http://www.w3.org/2000/svg" xmlns:xlink="http://www.w3.org/1999/xlink" version="1.1" x="0px" y="0px" viewBox="0 0 100 125" enable-background="new 0 0 100 100" xml:space="preserve"><g><path d="M40.81,3.001c-8.741,0-15.852,7.108-15.852,15.852c0,6.694,4.175,12.416,10.051,14.739v-5.199   c-3.218-1.965-5.379-5.5-5.379-9.541c0-6.164,5.014-11.182,11.18-11.182c6.166,0,11.181,5.018,11.181,11.182   c0,4.011-2.13,7.524-5.312,9.498v5.216c5.843-2.34,9.982-8.05,9.982-14.714C56.662,10.109,49.55,3.001,40.81,3.001z"/><path fill-rule="evenodd" clip-rule="evenodd" d="M74.793,45.698c-1.222,0-2.383,0.277-3.42,0.768   c-0.575-3.849-3.901-6.811-7.906-6.811c-1.239,0-2.414,0.284-3.464,0.789c-0.678-3.727-3.945-6.558-7.863-6.558   c-1.19,0-2.316,0.263-3.328,0.727V18.822c0-4.411-3.592-8.002-8.002-8.002c-4.411,0-8,3.591-8,8.002v28.53l-0.205-0.482   c-1.239-3.011-4.141-4.958-7.4-4.958c-1.044,0-2.066,0.204-3.038,0.603c-4.081,1.674-6.034,6.36-4.355,10.437l11.585,28.172   l0.06,0.132c4.749,9.739,14.426,15.792,25.254,15.792c15.482,0,28.078-12.595,28.078-28.082V53.697   C82.791,49.287,79.203,45.698,74.793,45.698z M78.118,68.965c0,12.91-10.496,23.41-23.405,23.41c-9.005,0-17.052-5.018-21.023-13.1   L22.13,51.181c-0.338-0.826-0.334-1.731,0.007-2.552c0.341-0.819,0.984-1.459,1.807-1.796c0.406-0.167,0.831-0.254,1.263-0.254   c1.357,0,2.564,0.812,3.089,2.09l9.188,21.682V18.822c0-1.838,1.493-3.331,3.328-3.331s3.329,1.493,3.329,3.331v35.009   c0,1.288,1.045,2.332,2.335,2.332c1.291,0,2.338-1.044,2.338-2.332V41.887c0-1.837,1.49-3.328,3.328-3.328   c1.832,0,3.328,1.49,3.328,3.328v16.062l0,0l0,0c0,1.292,1.042,2.336,2.333,2.336s2.333-1.044,2.333-2.336l0,0l0,0V47.654   c0-1.834,1.497-3.328,3.333-3.328c1.832,0,3.325,1.493,3.325,3.328v14.413h0.005c0,0.004-0.003,0.013-0.003,0.019   c0,1.288,1.044,2.333,2.337,2.333c1.288,0,2.333-1.045,2.333-2.333c0-0.006,0-0.015,0-0.019l0,0v-8.37   c0-1.836,1.494-3.329,3.329-3.329c1.838,0,3.325,1.493,3.325,3.329V68.965z"/></g><text x="0" y="115" fill="#000000" font-size="5px" font-weight="bold" font-family="'Helvetica Neue', Helvetica, Arial-Unicode, Arial, Sans-serif">Created by Mikhail Bazilevsky</text><text x="0" y="120" fill="#000000" font-size="5px" font-weight="bold" font-family="'Helvetica Neue', Helvetica, Arial-Unicode, Arial, Sans-serif">from the Noun Project</text></svg>